<svg xmlns="http://www.w3.org/2000/svg" viewBox="0 0 160 185">
  <!-- Piuma superiore (la più grande) -->
  <path fill="white" d="
    M 8,90
    C 6,78 10,60 20,48
    C 30,36 44,26 62,18
    L 148,4
    C 156,2 160,8 156,16
    C 152,24 140,32 122,38
    L 32,64
    C 18,70 8,80 8,90 Z
  "/>

  <!-- Piuma centrale (media) -->
  <path fill="white" d="
    M 8,120
    C 6,108 12,94 24,84
    C 34,76 48,68 64,62
    L 136,44
    C 144,42 148,48 144,56
    C 140,64 128,72 112,78
    L 30,100
    C 16,106 8,114 8,120 Z
  "/>

  <!-- Piuma inferiore (la più piccola) -->
  <path fill="white" d="
    M 8,152
    C 6,140 14,126 28,116
    C 38,108 54,100 70,94
    L 118,78
    C 126,76 130,82 126,90
    C 122,98 110,108 96,114
    L 28,138
    C 14,144 8,150 8,152 Z
  "/>
</svg>